<?xml version="1.0" standalone="no"?>
<!DOCTYPE svg PUBLIC "-//W3C//DTD SVG 20010904//EN" "http://www.w3.org/TR/2001/REC-SVG-20010904/DTD/svg10.dtd">
<svg xmlns="http://www.w3.org/2000/svg" version="1.0" width="171" height="181" viewBox="0 0 171.000000 181.000000" preserveAspectRatio="xMidYMid meet">

  <g transform="translate(0.000000,181.000000) scale(0.100000,-0.100000)" stroke="none">
    <path d="M580 1774 c-19 -2 -78 -9 -130 -14 -127 -14 -193 -36 -246 -83 -95 -84 -117 -160 -134 -475 -8 -144 -9 -256 -1 -400 16 -306 40 -385 137 -471 84 -74 180 -90 592 -98 l292 -6 0 -81 c0 -137 19 -138 209 -11 178 119 226 158 256 209 54 93 79 302 79 671 0 465 -30 593 -158 682 -88 60 -175 72 -561 77 -165 3 -316 2 -335 0z m365 -558 c110 -64 208 -127 217 -139 20 -26 23 -85 6 -122 -12 -27 -24 -34 -298 -193 -130 -74 -149 -83 -184 -78 -26 3 -50 15 -70 35 l-31 31 -3 245 c-3 269 2 300 57 331 51 29 94 13 306 -110z" />
  </g>
</svg>