<svg xmlns="http://www.w3.org/2000/svg" version="1.1" xmlns:xlink="http://www.w3.org/1999/xlink" viewBox="0 0 32 32"
  style="enable-background:new 0 0 512 512" xml:space="preserve" class="">
  <g transform="matrix(1.06,0,0,1.06,-0.9575742959976239,-0.9576189136505135)">
    <path
      d="M24 4.051A12 12 0 1 0 8.218 22.125a29.186 29.186 0 0 1 6.9 8.351A1 1 0 0 0 16 31a1 1 0 0 0 .88-.526l.082-.154a29.5 29.5 0 0 1 6.89-8.257A11.989 11.989 0 0 0 24 4.051zM16 18a5 5 0 1 1 5-5 5.006 5.006 0 0 1-5 5z">
    </path>
  </g>
</svg>