<svg xmlns="http://www.w3.org/2000/svg" version="1.1" xmlns:xlink="http://www.w3.org/1999/xlink"
  viewBox="0 0 64 64" style="enable-background:new 0 0 512 512"
  xml:space="preserve" fill-rule="evenodd"><g transform="matrix(1.1399999999999995,0,0,1.1399999999999995,-4.479963350295996,-4.550000133514388)"><path d="M31.322 14.327H12a3 3 0 0 0-3 3v.069a4.999 4.999 0 0 0-4.359 5.652l3.889 28a5 5 0 0 0 4.953 4.312h37.034a1 1 0 0 0 0-2H13.483a3 3 0 0 1-2.972-2.587l-3.889-28a3.002 3.002 0 0 1 2.972-3.413h44.812a3.002 3.002 0 0 1 2.972 3.413l-2.917 21a1 1 0 0 0 1.981.275l2.917-21A5.003 5.003 0 0 0 55 17.396V12.64a3 3 0 0 0-3-3H36.321a4 4 0 0 0-3.473 2.015zm15.657 30.034 8.318 8.318a1.5 1.5 0 0 0 2.122-2.121l-8.367-8.367A10.452 10.452 0 0 0 51 36.1c0-5.795-4.705-10.5-10.5-10.5S30 30.305 30 36.1s4.705 10.5 10.5 10.5c2.444 0 4.694-.837 6.479-2.239zm-19.478.025a2 2 0 0 0-2-2h-8a2 2 0 0 0-2 2v2a2 2 0 0 0 2 2h8a2 2 0 0 0 2-2v-2zm18.459-3.147A7.47 7.47 0 0 0 48 36.1c0-4.139-3.361-7.5-7.5-7.5S33 31.961 33 36.1s3.361 7.5 7.5 7.5a7.481 7.481 0 0 0 5.424-2.322z"  opacity="1" ></path></g></svg>