<svg xmlns="http://www.w3.org/2000/svg" version="1.1"
    xmlns:xlink="http://www.w3.org/1999/xlink" width="512" height="512" x="0" y="0" viewBox="0 0 512 512" style="enable-background:new 0 0 512 512" xml:space="preserve">
    <g transform="matrix(1.2300000000000002,0,0,1.2300000000000002,-58.88000000000005,-58.88000000000005)">
        <path d="M368 96H144a16 16 0 0 1 0-32h224a16 16 0 0 1 0 32zM400 144H112a16 16 0 0 1 0-32h288a16 16 0 0 1 0 32zM419.13 448H92.87A44.92 44.92 0 0 1 48 403.13V204.87A44.92 44.92 0 0 1 92.87 160h326.26A44.92 44.92 0 0 1 464 204.87v198.26A44.92 44.92 0 0 1 419.13 448z"></path>
    </g>
</svg>